<?xml version="1.0" encoding="UTF-8"?>
<svg width="145px" height="22px" viewBox="0 0 145 22" version="1.1" xmlns="http://www.w3.org/2000/svg">
    <!-- Generator: Sketch 49.3 (51167) - http://www.bohemiancoding.com/sketch -->
    <title>logo</title>
    <desc>Created with Sketch.</desc>
    <defs></defs>
    <g id="Final-mockups" stroke="none" stroke-width="1" fill="none" fill-rule="evenodd">
        <g id="Sign-in" transform="translate(-67.000000, -21.000000)" fill="#fff">
            <g id="logo" transform="translate(67.000000, 21.000000)">
                <path d="M76.8251579,17.0465263 C74.3356842,17.0465263 72.1912632,15.1012632 72.1912632,10.9143158 C72.1912632,6.72736842 74.3356842,4.78094737 76.8251579,4.78094737 C77.7977895,4.78094737 78.6222105,4.97778947 79.3470526,5.39 L79.0008421,6.21557895 C78.4242105,5.86936842 77.7155789,5.67136842 76.8911579,5.67136842 C74.9123158,5.67136842 73.2298947,7.28663158 73.2298947,10.9143158 C73.2298947,14.5408421 74.9123158,16.1398947 76.8911579,16.1398947 C77.7155789,16.1398947 78.4242105,15.9592632 79.0008421,15.6118947 L79.3470526,16.4363158 C78.6222105,16.8485263 77.7977895,17.0465263 76.8251579,17.0465263" id="Fill-1"></path>
                <polygon id="Fill-2" points="81.2112632 4.378 82.1653684 4.378 82.1653684 17.0627368 81.2112632 17.0627368"></polygon>
                <path d="M95.634,17.0627368 C93.5822105,17.0627368 92.4185263,16.1086316 92.4185263,14.0892632 L92.4185263,8.35421053 L93.3714737,8.35421053 L93.3714737,14.1054737 C93.3714737,15.5597895 94.1310526,16.2556842 95.634,16.2556842 C96.5394737,16.2556842 97.3314737,16.0773684 97.7193684,15.8990526 L97.7193684,8.35421053 L98.6734737,8.35421053 L98.6734737,16.4652632 C98.0424211,16.7883158 96.8787368,17.0627368 95.634,17.0627368" id="Fill-3"></path>
                <path d="M105.691474,4.378 L105.691474,8.43178947 C105.095158,8.27894737 104.365684,8.17589474 103.606105,8.17589474 C101.554316,8.17589474 100.710211,9.14157895 100.389474,11.1493684 C100.389474,11.1493684 100.299158,11.8290526 100.299158,12.7067368 C100.299158,13.5855789 100.389474,14.0892632 100.389474,14.0892632 C100.726421,16.1213684 101.554316,17.0627368 103.606105,17.0627368 C104.849684,17.0627368 106.015684,16.7883158 106.645579,16.2881053 L106.645579,4.378 L105.691474,4.378 L105.691474,4.378 Z M105.691474,15.8990526 C105.303579,16.0773684 104.511579,16.2556842 103.606105,16.2556842 C102.103158,16.2556842 101.547368,15.5424211 101.343579,14.1054737 C101.343579,14.1054737 101.252105,13.5786316 101.252105,12.7067368 C101.252105,11.836 101.343579,11.1331579 101.343579,11.1331579 C101.628421,9.70431579 102.103158,8.98410526 103.606105,8.98410526 C104.511579,8.98410526 105.303579,9.16242105 105.691474,9.33957895 L105.691474,15.8990526 L105.691474,15.8990526 Z" id="Fill-4"></path>
                <polyline id="Fill-5" points="108.471579 17.0627368 108.471579 4.378 110.297579 4.378 110.297579 15.5273684 114.321263 15.5273684 114.321263 17.0627368 108.471579 17.0627368"></polyline>
                <path d="M116.873263,6.76905263 C116.292,6.76905263 115.823053,6.31631579 115.823053,5.76747368 C115.823053,5.21863158 116.292,4.76589474 116.873263,4.76589474 C117.454526,4.76589474 117.923474,5.21863158 117.923474,5.76747368 C117.923474,6.31631579 117.454526,6.76905263 116.873263,6.76905263 L116.873263,6.76905263 Z M115.985158,8.35421053 L117.762526,8.35421053 L117.762526,17.0627368 L115.985158,17.0627368 L115.985158,8.35421053 Z" id="Fill-6"></path>
                <path d="M124.772421,17.0627368 L124.772421,11.4226316 C124.772421,10.406 124.158737,9.77610526 122.947579,9.77610526 C122.301474,9.77610526 121.701684,9.88957895 121.346211,10.0354737 L121.346211,17.0627368 L119.585053,17.0627368 L119.585053,8.96789474 C120.458105,8.61126316 121.573158,8.35421053 122.931368,8.35421053 C125.372211,8.35421053 126.550947,9.42063158 126.550947,11.2616842 L126.550947,17.0627368 L124.772421,17.0627368" id="Fill-7"></path>
                <path d="M131.901579,17.0627368 C129.605474,17.0627368 128.376947,16.1086316 128.376947,13.9271579 L128.376947,8.35421053 L130.138105,8.35421053 L130.138105,13.9607368 C130.138105,15.0757895 130.737895,15.6084211 131.901579,15.6084211 C132.578947,15.6084211 133.161368,15.4949474 133.453158,15.3664211 L133.453158,8.35421053 L135.214316,8.35421053 L135.214316,16.4490526 C134.503368,16.8045263 133.226211,17.0627368 131.901579,17.0627368" id="Fill-8"></path>
                <polyline id="Fill-9" points="142.543789 17.0627368 140.507053 13.75 140.475789 13.75 138.439053 17.0627368 136.418526 17.0627368 139.409368 12.5376842 136.661684 8.35421053 138.649789 8.35421053 140.475789 11.3902105 140.507053 11.3902105 142.334211 8.35421053 144.321158 8.35421053 141.573474 12.5376842 144.564316 17.0627368 142.543789 17.0627368"></polyline>
                <path d="M90.5022105,11.1493684 C90.1814737,9.14157895 89.3373684,8.17589474 87.2855789,8.17589474 C85.2326316,8.17589474 84.3896842,9.14157895 84.0689474,11.1493684 C84.0689474,11.1493684 83.9786316,11.8290526 83.9786316,12.7067368 C83.9786316,13.5855789 84.0689474,14.0892632 84.0689474,14.0892632 C84.4058947,16.1213684 85.2326316,17.0627368 87.2855789,17.0627368 C89.3373684,17.0627368 90.1652632,16.1213684 90.5022105,14.0892632 C90.5022105,14.0892632 90.5913684,13.5855789 90.5913684,12.7067368 C90.5913684,11.8290526 90.5022105,11.1493684 90.5022105,11.1493684 L90.5022105,11.1493684 Z M89.5481053,14.1054737 C89.3443158,15.5424211 88.7885263,16.2556842 87.2855789,16.2556842 C85.7814737,16.2556842 85.2256842,15.5424211 85.0230526,14.1054737 C85.0230526,14.1054737 84.9327368,13.5786316 84.9327368,12.7067368 C84.9327368,11.836 85.0230526,11.1331579 85.0230526,11.1331579 C85.3067368,9.70431579 85.7814737,8.98410526 87.2855789,8.98410526 C88.7885263,8.98410526 89.2632632,9.70431579 89.5481053,11.1331579 C89.5481053,11.1331579 89.6384211,11.836 89.6384211,12.7067368 C89.6384211,13.5786316 89.5481053,14.1054737 89.5481053,14.1054737 L89.5481053,14.1054737 Z" id="Fill-10"></path>
                <path d="M59.3590526,0 C59.4806316,0.0324210526 59.6022105,0.066 59.7249474,0.0961052632 C62.2711579,0.737578947 64.1770526,2.13631579 65.0535789,4.69526316 C65.4310526,5.79757895 65.1786316,6.87905263 64.7027368,7.89915789 C64.4653684,8.40631579 64.2569474,8.93894737 63.8794737,9.37315789 C63.7717895,9.49821053 63.7011579,9.65915789 63.4950526,9.73557895 C63.7578947,7.40821053 63.6861053,5.12368421 62.0523158,3.29189474 C60.4949474,1.54578947 58.486,0.551157895 56,0.423789474 C56.4643158,0.0961052632 56.9413684,0.193368421 57.3234737,0 L59.3590526,0" id="Fill-11"></path>
                <path d="M68.6967368,11.7190526 C68.5207368,11.7989474 68.5427368,11.9726316 68.508,12.1185263 C67.9823158,14.3729474 66.6982105,16.0298947 64.6174737,17.0650526 C63.2175789,17.7621053 61.8443158,17.5351579 60.5011579,16.9226316 C60.0437895,16.7142105 59.5852632,16.4826316 59.1788421,16.1711579 C59.0561053,16.0773684 58.9183158,16.0032632 58.8210526,15.8110526 C59.0503158,15.7635789 59.2494737,15.8156842 59.4509474,15.8295789 C61.3834737,15.9627368 63.3148421,15.8677895 64.9335789,14.7041053 C66.5916842,13.5114737 67.5608421,11.7885263 68.002,9.78768421 C68.0911579,9.38010526 68.1455789,8.96442105 68.222,8.52210526 C68.5531579,8.866 68.3470526,9.38821053 68.6967368,9.68347368 L68.6967368,11.7190526" id="Fill-12"></path>
                <path d="M47.1587368,9.68347368 C47.4065263,8.51168421 47.8198947,7.41052632 48.5516842,6.44715789 C49.5092632,5.18621053 50.7864211,4.39421053 52.2905263,3.96463158 C52.8451579,3.80715789 53.4252632,3.93568421 53.9683158,4.05031579 C55.0984211,4.28652632 56.0861053,4.85389474 57.0402105,5.56947368 C51.5506316,5.00673684 48.3837895,7.41863158 47.5246316,12.8792632 C47.2745263,12.5168421 47.3358947,12.078 47.1587368,11.7190526 L47.1587368,9.68347368" id="Fill-13"></path>
                <path d="M52.1504211,19.4364211 C50.9427368,18.8655789 49.9075789,18.1013684 49.2313684,16.9446316 C47.9611579,14.7701053 47.7782105,12.5249474 48.8851579,10.2288421 C49.3321053,9.30021053 50.1715789,8.76989474 51.0585263,8.36347368 C51.7335789,8.05431579 52.4561053,7.82621053 53.2006316,7.70810526 C53.3048421,7.69189474 53.4403158,7.61894737 53.4970526,7.76484211 C53.5410526,7.87831579 53.4194737,7.93157895 53.3430526,7.98831579 C51.854,9.06863158 50.9311579,10.5785263 50.1843158,12.21 C49.8890526,12.8549474 49.9087368,13.5612632 49.984,14.2525263 C50.1889474,16.1503158 50.8593684,17.8582105 52.0971579,19.3287368 C52.1226316,19.3576842 52.1330526,19.4005263 52.1504211,19.4364211" id="Fill-14"></path>
                <path d="M48.9673684,5.00557895 C49.2024211,4.37452632 49.5683158,3.85 50.0187368,3.41926316 C51.1141053,2.37136842 52.3588421,1.55621053 53.8826316,1.26210526 C55.3936842,0.970315789 56.8642105,1.08610526 58.2617895,1.75768421 C59.4590526,2.332 60.1213684,3.36831579 60.5405263,4.57252632 C60.7454737,5.16305263 60.9214737,5.77210526 60.9214737,6.47031579 C57.4118947,2.02978947 53.3986316,1.92673684 48.9673684,5.00557895" id="Fill-15"></path>
                <path d="M66.7665263,16.4038947 C66.2802105,17.5235789 65.5287368,18.4116842 64.5190526,19.052 C62.2692632,20.4796842 59.9036842,20.7436842 57.4686316,19.5753684 C56.3003158,19.0137895 55.6078947,18.0041053 55.2338947,16.7778947 C55.0810526,16.28 54.8911579,15.7890526 54.8483158,15.2610526 C54.8413684,15.1811579 54.7892632,15.0815789 54.8853684,15.0341053 C54.9826316,14.9866316 55.0405263,15.0792632 55.0868421,15.1464211 C55.9413684,16.3772632 57.1826316,17.1403158 58.4273684,17.8929474 C59.4127368,18.4892632 60.4942105,18.5691579 61.6196842,18.4765263 C63.5522105,18.3178947 65.2658947,17.6497895 66.7665263,16.4038947" id="Fill-16"></path>
                <path d="M62,13.7016842 C62.2732632,13.4932632 62.528,13.3045263 62.7781053,13.1088421 C63.5793684,12.4812632 64.1594737,11.6730526 64.6978947,10.8185263 C66.4532632,8.03031579 65.6392632,5.42736842 64.1513684,2.87073684 C63.9776842,2.572 63.7403158,2.31147368 63.562,2 C64.3285263,2.31031579 64.9862105,2.78389474 65.5234737,3.39757895 C67.3645263,5.50031579 67.9110526,7.88789474 67.0275789,10.5661053 C66.5146316,12.1176842 65.3486316,12.9444211 63.8526316,13.3994737 C63.3547368,13.5511579 62.8661053,13.7422105 62.3381053,13.7734737 C62.2408421,13.7792632 62.1435789,13.8186316 62,13.7016842" id="Fill-17"></path>
                <path d="M60.0762105,20.8942105 C59.1452632,21.3423158 58.1726316,21.3631579 57.2011579,21.296 C54.5136842,21.1084211 52.0404211,19.1758947 51.2148421,16.6123158 C50.8616842,15.5169474 51.1430526,14.4632632 51.5622105,13.4443158 C51.7764211,12.9209474 52.0728421,12.4369474 52.3924211,11.9703158 C52.4595789,11.8730526 52.5105263,11.6877895 52.6517895,11.7375789 C52.8185263,11.7954737 52.7444211,11.9818947 52.7282105,12.1127368 C52.6135789,13.0737895 52.6355789,14.0267368 52.8335789,14.9762105 C53.1149474,16.3216842 53.5167368,17.5988421 54.6155789,18.5390526 C56.1382105,19.8416842 57.8715789,20.6533684 59.8747368,20.8652632 C59.9418947,20.8722105 60.0090526,20.8849474 60.0762105,20.8942105" id="Fill-18"></path>
                <path d="M53.0767368,6.61621053 C53.0802105,6.50621053 53.1427368,6.49347368 53.1925263,6.47842105 C54.3017895,6.13915789 55.4249474,6.03494737 56.5689474,6.27463158 C56.6847368,6.29894737 56.8642105,6.29315789 56.8491579,6.46452632 C56.8317895,6.66136842 56.6384211,6.63705263 56.5122105,6.61273684 C55.3693684,6.38694737 54.2242105,6.40894737 53.0767368,6.61621053" id="Fill-19"></path>
                <path d="M62.1048421,5.92494737 C62.1812632,6.20515789 62.2565263,6.48536842 62.3352632,6.76557895 C62.4406316,7.14305263 62.4487368,7.53557895 62.5517895,7.92 C62.6988421,8.46536842 62.3781053,8.98294737 62.3051579,9.52136842 C62.2958947,9.59315789 62.2287368,9.64989474 62.15,9.63021053 C62.0041053,9.59431579 62.0029474,9.46694737 62.0284211,9.35810526 C62.1453684,8.84747368 62.1754737,8.33105263 62.1731579,7.80884211 C62.172,7.18242105 62.1638947,6.55715789 62.1048421,5.92494737" id="Fill-20"></path>
                <path d="M51.6027368,10.9918947 C51.7451579,10.6063158 51.9732632,10.2751579 52.2314737,9.966 C52.6830526,9.42410526 53.1601053,8.90536842 53.7564211,8.514 C53.8432632,8.45726316 53.9474737,8.34378947 54.0505263,8.47115789 C54.1350526,8.57421053 54.0956842,8.70736842 53.9961053,8.77105263 C53.0663158,9.36042105 52.3727368,10.1929474 51.6664211,11.0115789 C51.6629474,11.0162105 51.6432632,11.0046316 51.6027368,10.9918947" id="Fill-21"></path>
                <path d="M53.7124211,15.4555789 C53.3036842,14.3764211 53.1577895,13.266 53.4044211,12.122 C53.4298947,12.0050526 53.4472632,11.8336842 53.6186316,11.8603158 C53.79,11.8869474 53.7622105,12.0490526 53.7378947,12.1706316 C53.5190526,13.2625263 53.5618947,14.3532632 53.7124211,15.4555789" id="Fill-22"></path>
                <path d="M58.2328421,16.9816842 C57.2231579,16.4316842 56.4103158,15.7346316 55.7248421,14.8870526 C55.6426316,14.7851579 55.5117895,14.6311579 55.6692632,14.5223158 C55.8197895,14.4181053 55.9182105,14.5906316 56.0038947,14.6948421 C56.6268421,15.4590526 57.3192632,16.1503158 58.1008421,16.7524211 C58.1541053,16.7929474 58.2293684,16.8184211 58.2328421,16.9816842" id="Fill-23"></path>
                <path d="M57.6006316,4.53547368 C58.1274737,4.65821053 58.5501053,4.95463158 58.9252632,5.30778947 C59.3629474,5.72115789 59.8249474,6.11947368 60.1364211,6.64863158 C60.1838947,6.72968421 60.2742105,6.82463158 60.1618947,6.908 C60.0681053,6.97747368 59.9708421,6.91957895 59.9013684,6.84431579 C59.8261053,6.76094737 59.7601053,6.66831579 59.6929474,6.57915789 C59.1394737,5.84736842 58.5072632,5.19547368 57.7488421,4.67094737 C57.6944211,4.63389474 57.6504211,4.58178947 57.6006316,4.53547368" id="Fill-24"></path>
                <path d="M62.5008421,14.8974737 C61.4610526,15.2587368 60.4038947,15.3745263 59.3201053,15.1325263 C59.2135789,15.1082105 59.0769474,15.0862105 59.0815789,14.938 C59.0862105,14.8036842 59.202,14.7886316 59.3027368,14.8094737 C60.3633684,15.0329474 61.4309474,14.9553684 62.5008421,14.8974737" id="Fill-25"></path>
                <path d="M64.1172632,10.5646316 C63.6378947,11.5882105 62.8864211,12.3582105 61.9334737,12.9383158 C61.8605263,12.9834737 61.7771579,13.0228421 61.7134737,12.9278947 C61.6694737,12.8618947 61.6949474,12.7877895 61.7389474,12.7322105 C61.7817895,12.6777895 61.8315789,12.6222105 61.8894737,12.5874737 C62.7636842,12.0583158 63.4989474,11.3797895 64.1172632,10.5646316" id="Fill-26"></path>
                <path d="M6.44484211,7.63168421 L5.98168421,9.87684211 L4.49726316,16.368 C4.45905263,16.5497895 4.4,16.6910526 4.32126316,16.7917895 C4.24136842,16.8936842 4.12326316,16.9446316 3.96347368,16.9446316 L3.45978947,16.9446316 C3.29073684,16.9446316 3.15757895,16.9110526 3.06031579,16.8462105 C2.96189474,16.7802105 2.89010526,16.6458947 2.84263158,16.4432632 L0.895052632,6.47957895 C0.858,6.36842105 0.890421053,6.31284211 0.993473684,6.31284211 L1.82021053,6.31284211 C1.95105263,6.31284211 2.02052632,6.36263158 2.02978947,6.46452632 L3.22126316,13.046 L3.65547368,15.5482105 L3.72610526,15.5482105 L4.27263158,13.0309474 L5.64589474,6.87326316 C5.67368421,6.72157895 5.72926316,6.59073684 5.81378947,6.47957895 C5.89831579,6.36842105 6.04768421,6.31284211 6.26189474,6.31284211 L6.73894737,6.31284211 C6.91610526,6.31284211 7.04463158,6.36263158 7.12452632,6.46452632 C7.20326316,6.56526316 7.26115789,6.70189474 7.29936842,6.87326316 L8.65873684,12.9857895 L9.19136842,15.5482105 L9.26084211,15.5482105 L9.724,12.9707368 L10.9293684,6.46452632 C10.9374737,6.36263158 11.0034737,6.31284211 11.1250526,6.31284211 L11.9378947,6.31284211 C12.0409474,6.31284211 12.0733684,6.36842105 12.0363158,6.47957895 L10.0597895,16.4432632 C10.0134737,16.6458947 9.94052632,16.7802105 9.84326316,16.8462105 C9.74484211,16.9110526 9.61168421,16.9446316 9.44378947,16.9446316 L8.93894737,16.9446316 C8.78031579,16.9446316 8.66336842,16.896 8.58810526,16.7998947 C8.514,16.7037895 8.45263158,16.5602105 8.40631579,16.368 L6.93463158,9.84673684 L6.48652632,7.63168421 L6.44484211,7.63168421" id="Fill-27"></path>
                <path d="M16.0854737,8.81505263 C16.6181053,8.81505263 17.0754737,8.89842105 17.4587368,9.06515789 C17.842,9.23189474 18.1569474,9.46694737 18.4047368,9.77031579 C18.6525263,10.0736842 18.8366316,10.4326316 18.9582105,10.8471579 C19.0797895,11.2616842 19.1411579,11.7167368 19.1411579,12.2123158 C19.1411579,12.6372632 19.0496842,12.9174737 18.8667368,13.0541053 C18.6849474,13.1907368 18.4626316,13.2590526 18.2021053,13.2590526 L13.9132632,13.2590526 C13.9132632,13.7812632 13.9746316,14.2270526 14.0962105,14.5941053 C14.2177895,14.9611579 14.3845263,15.2575789 14.5952632,15.4845263 C14.806,15.7103158 15.0549474,15.8735789 15.3409474,15.9743158 C15.6269474,16.0750526 15.9337895,16.1248421 16.2614737,16.1248421 C16.5706316,16.1248421 16.8728421,16.0854737 17.1692632,16.0032632 C17.4633684,15.9233684 17.7146316,15.8214737 17.9207368,15.7010526 C18.0330526,15.6396842 18.1129474,15.6605263 18.1604211,15.7612632 L18.4116842,16.2950526 C18.4684211,16.4177895 18.4441053,16.5046316 18.3422105,16.5567368 C18.0145263,16.7721053 17.6648421,16.9191579 17.2908421,16.9955789 C16.9168421,17.072 16.5532632,17.1113684 16.1977895,17.1113684 C15.1695789,17.1113684 14.3625263,16.7848421 13.7731579,16.1329474 C13.1849474,15.4798947 12.8908421,14.4366316 12.8908421,13.0008421 C12.8908421,12.3234737 12.9695789,11.7236842 13.1293684,11.2037895 C13.288,10.6827368 13.5091579,10.2462105 13.794,9.89189474 C14.08,9.53757895 14.4157895,9.27010526 14.8025263,9.08831579 C15.1904211,8.90536842 15.6176842,8.81505263 16.0854737,8.81505263 L16.0854737,8.81505263 Z M18.1604211,12.3489474 C18.1604211,12.0050526 18.1268421,11.6762105 18.0608421,11.3624211 C17.996,11.0497895 17.886,10.7742105 17.7308421,10.5356842 C17.5756842,10.2983158 17.3626316,10.1095789 17.0905263,9.96715789 C16.8195789,9.82589474 16.4814737,9.75526316 16.0785263,9.75526316 C15.7508421,9.75526316 15.4578947,9.82357895 15.1996842,9.96021053 C14.9414737,10.0968421 14.7237895,10.2809474 14.5466316,10.5136842 C14.3683158,10.7464211 14.2293684,11.0196842 14.1309474,11.3323158 C14.0325263,11.6461053 13.9746316,11.9842105 13.9561053,12.3489474 L18.1604211,12.3489474 L18.1604211,12.3489474 Z" id="Fill-28"></path>
                <path d="M29.9454737,16.2464211 C29.9454737,16.4282105 29.8794737,16.5497895 29.7486316,16.61 C29.3294737,16.8033684 28.8802105,16.9342105 28.4043158,17.0048421 C27.9272632,17.0754737 27.4698947,17.1113684 27.0310526,17.1113684 C26.4324211,17.1113684 25.9426316,17.0395789 25.5593684,16.8983158 C25.1761053,16.7558947 24.8727368,16.5706316 24.6481053,16.3425263 C24.4234737,16.1144211 24.2671579,15.8504211 24.178,15.5516842 C24.09,15.2529474 24.046,14.9403158 24.046,14.6161053 C24.046,14.2409474 24.1062105,13.8889474 24.2277895,13.5589474 C24.3493684,13.2301053 24.5334737,12.9429474 24.7812632,12.6997895 C25.0290526,12.4566316 25.3393684,12.2667368 25.7133684,12.1289474 C26.0873684,11.9923158 26.5308421,11.924 27.0449474,11.924 L28.9091579,11.924 L28.9091579,11.5198947 C28.9091579,11.2709474 28.8848421,11.0393684 28.8385263,10.8251579 C28.7922105,10.6109474 28.7030526,10.4291579 28.5722105,10.2786316 C28.4413684,10.1304211 28.2595789,10.0123158 28.0256842,9.92778947 C27.7917895,9.84326316 27.4884211,9.80042105 27.1144211,9.80042105 C26.8064211,9.80042105 26.4671579,9.834 26.0989474,9.89884211 C25.7295789,9.96484211 25.4146316,10.0435789 25.1529474,10.1338947 C25.0869474,10.1547368 25.036,10.1616842 24.9989474,10.1570526 C24.9607368,10.1524211 24.9329474,10.1142105 24.9144211,10.0435789 L24.7743158,9.49242105 C24.7465263,9.38010526 24.7835789,9.30252632 24.8866316,9.26084211 C25.0545263,9.19021053 25.2374737,9.12536842 25.4331579,9.06978947 C25.6288421,9.01305263 25.8326316,8.96442105 26.0422105,8.92273684 C26.2529474,8.88105263 26.4648421,8.85326316 26.6802105,8.83821053 C26.8944211,8.82315789 27.0958947,8.81505263 27.2834737,8.81505263 C28.1889474,8.81505263 28.8593684,9.03273684 29.2935789,9.46694737 C29.7289474,9.90231579 29.9454737,10.5391579 29.9454737,11.3774737 L29.9454737,16.2464211 L29.9454737,16.2464211 Z M28.8941053,12.9093684 L27.0866316,12.9093684 C26.9187368,12.9093684 26.7172632,12.9255789 26.4833684,12.9556842 C26.2506316,12.9857895 26.0283158,13.0598947 25.8187368,13.1768421 C25.608,13.2937895 25.4308421,13.4663158 25.2861053,13.6944211 C25.1402105,13.9236842 25.0684211,14.2351579 25.0684211,14.6311579 C25.0684211,14.9356842 25.1216842,15.1904211 25.2293684,15.3930526 C25.3370526,15.5968421 25.4817895,15.7589474 25.6647368,15.8805263 C25.8465263,16.0032632 26.0537895,16.0866316 26.2876842,16.1329474 C26.5215789,16.1781053 26.7647368,16.2012632 27.016,16.2012632 C27.1005263,16.2012632 27.2151579,16.1966316 27.3598947,16.1850526 C27.5046316,16.1757895 27.6655789,16.1607368 27.8427368,16.1398947 C28.0210526,16.1190526 28.2005263,16.0866316 28.3823158,16.0414737 C28.5652632,15.9963158 28.7354737,15.9418947 28.8941053,15.8805263 L28.8941053,12.9093684 L28.8941053,12.9093684 Z" id="Fill-29"></path>
                <path d="M36.1390526,10.6653684 C36.0927368,10.7163158 36.0556842,10.7383158 36.0278947,10.7336842 C35.9989474,10.7278947 35.9665263,10.7105263 35.9294737,10.6804211 C35.6677895,10.4175789 35.3655789,10.2056842 35.0251579,10.0435789 C34.6847368,9.88147368 34.3037895,9.80042105 33.8834737,9.80042105 C33.7526316,9.80042105 33.6055789,9.80621053 33.4423158,9.81547368 C33.2778947,9.82589474 33.1030526,9.85715789 32.9154737,9.90694737 L32.9154737,16.7466316 C32.9154737,16.8276842 32.9027368,16.8809474 32.8737895,16.9064211 C32.8448421,16.9318947 32.7927368,16.9446316 32.7174737,16.9446316 L32.0783158,16.9446316 C32.0111579,16.9446316 31.9648421,16.9318947 31.9358947,16.9064211 C31.9069474,16.8809474 31.8930526,16.8276842 31.8930526,16.7466316 L31.8930526,9.90694737 C31.8930526,9.59315789 31.9428421,9.36042105 32.0424211,9.20873684 C32.142,9.05821053 32.3434737,8.95631579 32.6456842,8.90536842 C33.0694737,8.84515789 33.4585263,8.81505263 33.8128421,8.81505263 C34.9058947,8.81505263 35.8217895,9.15894737 36.5605263,9.84673684 C36.6253684,9.91736842 36.63,9.988 36.5732632,10.0586316 L36.1390526,10.6653684" id="Fill-30"></path>
                <path d="M40.4001053,8.81505263 C40.9315789,8.81505263 41.3901053,8.89842105 41.7733684,9.06515789 C42.1554737,9.23189474 42.4715789,9.46694737 42.7193684,9.77031579 C42.966,10.0736842 43.1512632,10.4326316 43.2728421,10.8471579 C43.3932632,11.2616842 43.4546316,11.7167368 43.4546316,12.2123158 C43.4546316,12.6372632 43.3631579,12.9174737 43.1813684,13.0541053 C42.9995789,13.1907368 42.7772632,13.2590526 42.5155789,13.2590526 L38.2278947,13.2590526 C38.2278947,13.7812632 38.2881053,14.2270526 38.4108421,14.5941053 C38.5324211,14.9611579 38.6991579,15.2575789 38.9087368,15.4845263 C39.1206316,15.7103158 39.3684211,15.8735789 39.6544211,15.9743158 C39.9404211,16.0750526 40.2472632,16.1248421 40.5749474,16.1248421 C40.8841053,16.1248421 41.1874737,16.0854737 41.4827368,16.0032632 C41.778,15.9233684 42.0281053,15.8214737 42.2342105,15.7010526 C42.3465263,15.6396842 42.4264211,15.6605263 42.4738947,15.7612632 L42.7251579,16.2950526 C42.7818947,16.4177895 42.7587368,16.5046316 42.6556842,16.5567368 C42.328,16.7721053 41.9783158,16.9191579 41.6043158,16.9955789 C41.2303158,17.072 40.8667368,17.1113684 40.5124211,17.1113684 C39.4830526,17.1113684 38.676,16.7848421 38.0877895,16.1329474 C37.4995789,15.4798947 37.2043158,14.4366316 37.2043158,13.0008421 C37.2043158,12.3234737 37.2830526,11.7236842 37.4428421,11.2037895 C37.6014737,10.6827368 37.8226316,10.2462105 38.1086316,9.89189474 C38.3934737,9.53757895 38.7292632,9.27010526 39.1171579,9.08831579 C39.5050526,8.90536842 39.9323158,8.81505263 40.4001053,8.81505263 L40.4001053,8.81505263 Z M42.4738947,12.3489474 C42.4738947,12.0050526 42.4403158,11.6762105 42.3754737,11.3624211 C42.3094737,11.0497895 42.1994737,10.7742105 42.0443158,10.5356842 C41.8903158,10.2983158 41.6761053,10.1095789 41.4051579,9.96715789 C41.1330526,9.82589474 40.7961053,9.75526316 40.392,9.75526316 C40.0643158,9.75526316 39.7713684,9.82357895 39.5143158,9.96021053 C39.2561053,10.0968421 39.0384211,10.2809474 38.8601053,10.5136842 C38.6817895,10.7464211 38.544,11.0196842 38.4455789,11.3323158 C38.346,11.6461053 38.2881053,11.9842105 38.2695789,12.3489474 L42.4738947,12.3489474 L42.4738947,12.3489474 Z" id="Fill-31"></path>
            </g>
        </g>
    </g>
</svg>
